<svg width="23" height="29" viewBox="0 0 23 29" fill="none" xmlns="http://www.w3.org/2000/svg">
<path d="M21.0313 24.7917C19.8554 26.5483 18.6088 28.2625 16.7104 28.2908C14.8121 28.3333 14.2029 27.1717 12.0496 27.1717C9.88209 27.1717 9.21625 28.2625 7.41709 28.3333C5.56125 28.4042 4.15875 26.4633 2.96875 24.7492C0.546253 21.25 -1.30958 14.8042 1.18375 10.4692C2.41625 8.31583 4.62625 6.95583 7.02042 6.91333C8.83375 6.885 10.5621 8.14583 11.6813 8.14583C12.7863 8.14583 14.8829 6.63 17.0788 6.85667C17.9996 6.89917 20.5779 7.225 22.2354 9.66167C22.1079 9.74667 19.1613 11.475 19.1896 15.0592C19.2321 19.3375 22.9438 20.7683 22.9863 20.7825C22.9438 20.8817 22.3913 22.8225 21.0313 24.7917ZM12.9421 2.125C13.9763 0.949167 15.6904 0.0566667 17.1071 0C17.2913 1.6575 16.6254 3.32917 15.6338 4.51917C14.6563 5.72333 13.0413 6.65833 11.4546 6.53083C11.2421 4.90167 12.0354 3.20167 12.9421 2.125Z" fill="white"/>
</svg>
