<svg width="926" height="123" viewBox="0 0 926 123" fill="none" xmlns="http://www.w3.org/2000/svg">
<path d="M48.552 122.304C41.16 122.304 34.552 121.576 28.728 120.12C22.904 118.664 17.864 116.48 13.608 113.568C9.46396 110.656 6.21596 107.016 3.86396 102.648C1.62396 98.28 0.335964 93.24 -3.58224e-05 87.528L24.192 80.136C24.528 85.064 25.816 89.096 28.056 92.232C30.296 95.368 33.32 97.72 37.128 99.288C40.936 100.744 45.192 101.472 49.896 101.472C54.264 101.472 57.96 100.968 60.984 99.96C64.008 98.84 66.304 97.384 67.872 95.592C69.44 93.8 70.224 91.896 70.224 89.88C70.224 87.304 69.16 85.176 67.032 83.496C65.016 81.816 62.16 80.416 58.464 79.296C54.88 78.064 50.68 76.888 45.864 75.768C40.488 74.424 35.168 72.968 29.904 71.4C24.752 69.832 20.048 67.816 15.792 65.352C11.536 62.776 8.11996 59.528 5.54396 55.608C3.07996 51.576 1.84796 46.592 1.84796 40.656C1.84796 33.712 3.58396 27.72 7.05596 22.68C10.64 17.64 15.736 13.72 22.344 10.92C29.064 8.12002 37.128 6.72002 46.536 6.72002C56.056 6.72002 64.232 8.17602 71.064 11.088C77.896 13.888 83.16 17.92 86.856 23.184C90.552 28.336 92.4 34.384 92.4 41.328L68.04 47.544C68.04 44.296 67.536 41.44 66.528 38.976C65.52 36.4 64.12 34.272 62.328 32.592C60.536 30.912 58.24 29.68 55.44 28.896C52.752 28 49.672 27.552 46.2 27.552C42.168 27.552 38.752 28.056 35.952 29.064C33.152 29.96 31.024 31.248 29.568 32.928C28.224 34.496 27.552 36.344 27.552 38.472C27.552 41.048 28.616 43.176 30.744 44.856C32.984 46.536 36.008 47.992 39.816 49.224C43.624 50.344 47.936 51.464 52.752 52.584C57.568 53.704 62.496 55.048 67.536 56.616C72.576 58.184 77.28 60.2 81.648 62.664C86.016 65.128 89.544 68.488 92.232 72.744C94.92 76.888 96.264 82.152 96.264 88.536C96.264 95.592 94.416 101.64 90.72 106.68C87.024 111.72 81.592 115.584 74.424 118.272C67.368 120.96 58.744 122.304 48.552 122.304ZM152.825 122.304C145.209 122.304 138.489 121.24 132.665 119.112C126.841 116.872 121.969 113.736 118.049 109.704C114.241 105.56 111.329 100.744 109.313 95.256C107.409 89.656 106.457 83.496 106.457 76.776C106.457 69.832 107.409 63.504 109.313 57.792C111.329 51.968 114.241 46.872 118.049 42.504C121.969 38.136 126.785 34.776 132.497 32.424C138.209 30.072 144.761 28.896 152.153 28.896C160.105 28.896 166.825 30.24 172.313 32.928C177.801 35.616 182.113 39.256 185.249 43.848C188.385 48.44 190.289 53.648 190.961 59.472L166.265 66.192C166.153 62.384 165.369 59.304 163.913 56.952C162.569 54.488 160.777 52.696 158.537 51.576C156.297 50.456 153.777 49.896 150.977 49.896C148.177 49.896 145.713 50.456 143.585 51.576C141.569 52.584 139.833 54.208 138.377 56.448C136.921 58.576 135.801 61.264 135.017 64.512C134.233 67.648 133.841 71.288 133.841 75.432C133.841 81.368 134.569 86.352 136.025 90.384C137.481 94.304 139.609 97.272 142.409 99.288C145.321 101.304 148.905 102.312 153.161 102.312C157.529 102.312 160.889 101.416 163.241 99.624C165.593 97.72 167.273 95.424 168.281 92.736C169.289 89.936 169.793 87.192 169.793 84.504L193.817 88.704C193.705 93.072 192.809 97.272 191.129 101.304C189.561 105.336 187.097 108.976 183.737 112.224C180.489 115.36 176.289 117.824 171.137 119.616C166.097 121.408 159.993 122.304 152.825 122.304ZM205.489 119.952V66.192V1.85966e-05H232.705V26.04C232.705 28.392 232.593 30.968 232.369 33.768C232.145 36.568 231.809 39.48 231.361 42.504C230.913 45.528 230.465 48.496 230.017 51.408C229.681 54.32 229.233 57.064 228.673 59.64H232.033C233.489 53.144 235.393 47.6 237.745 43.008C240.097 38.416 243.233 34.944 247.153 32.592C251.185 30.128 256.169 28.896 262.105 28.896C272.297 28.896 279.913 32.48 284.953 39.648C289.993 46.816 292.513 57.848 292.513 72.744V119.952H265.297V76.272C265.297 67.984 264.121 61.824 261.769 57.792C259.417 53.648 255.777 51.576 250.849 51.576C246.817 51.576 243.457 52.864 240.769 55.44C238.081 58.016 236.065 61.6 234.721 66.192C233.377 70.784 232.705 76.216 232.705 82.488V119.952H205.489ZM350.825 122.304C341.977 122.304 334.137 120.568 327.305 117.096C320.473 113.624 315.097 108.472 311.177 101.64C307.369 94.696 305.465 86.016 305.465 75.6C305.465 64.96 307.425 56.224 311.345 49.392C315.265 42.448 320.641 37.296 327.473 33.936C334.305 30.576 342.145 28.896 350.993 28.896C359.953 28.896 367.849 30.632 374.681 34.104C381.513 37.576 386.833 42.784 390.641 49.728C394.561 56.56 396.521 65.184 396.521 75.6C396.521 86.352 394.505 95.2 390.473 102.144C386.553 108.976 381.121 114.072 374.177 117.432C367.233 120.68 359.449 122.304 350.825 122.304ZM351.665 102.48C355.473 102.48 358.665 101.584 361.241 99.792C363.929 97.888 365.889 95.032 367.121 91.224C368.465 87.416 369.137 82.768 369.137 77.28C369.137 71.344 368.409 66.36 366.953 62.328C365.609 58.296 363.537 55.216 360.737 53.088C357.937 50.848 354.465 49.728 350.321 49.728C346.513 49.728 343.265 50.68 340.577 52.584C338.001 54.376 336.041 57.176 334.697 60.984C333.465 64.792 332.849 69.552 332.849 75.264C332.849 84.224 334.473 91 337.721 95.592C340.969 100.184 345.617 102.48 351.665 102.48ZM451.559 122.304C442.711 122.304 434.871 120.568 428.039 117.096C421.207 113.624 415.831 108.472 411.911 101.64C408.103 94.696 406.199 86.016 406.199 75.6C406.199 64.96 408.159 56.224 412.079 49.392C415.999 42.448 421.375 37.296 428.207 33.936C435.039 30.576 442.879 28.896 451.727 28.896C460.687 28.896 468.583 30.632 475.415 34.104C482.247 37.576 487.567 42.784 491.375 49.728C495.295 56.56 497.255 65.184 497.255 75.6C497.255 86.352 495.239 95.2 491.207 102.144C487.287 108.976 481.855 114.072 474.911 117.432C467.967 120.68 460.183 122.304 451.559 122.304ZM452.399 102.48C456.207 102.48 459.399 101.584 461.975 99.792C464.663 97.888 466.623 95.032 467.855 91.224C469.199 87.416 469.871 82.768 469.871 77.28C469.871 71.344 469.143 66.36 467.687 62.328C466.343 58.296 464.271 55.216 461.471 53.088C458.671 50.848 455.199 49.728 451.055 49.728C447.247 49.728 443.999 50.68 441.311 52.584C438.735 54.376 436.775 57.176 435.431 60.984C434.199 64.792 433.583 69.552 433.583 75.264C433.583 84.224 435.207 91 438.455 95.592C441.703 100.184 446.351 102.48 452.399 102.48ZM511.301 119.952V1.85966e-05H538.013V119.952H511.301ZM548.863 119.952L586.327 9.07202H624.967L662.263 119.952H632.863L606.823 30.408H604.471L578.263 119.952H548.863ZM570.871 99.456V80.976H644.287V99.456H570.871ZM699.846 122.304C689.654 122.304 681.982 118.832 676.83 111.888C671.678 104.832 669.102 94.136 669.102 79.8V31.248H696.318V76.944C696.318 84.896 697.438 90.72 699.678 94.416C702.03 98 705.502 99.792 710.094 99.792C713.006 99.792 715.526 99.064 717.654 97.608C719.782 96.152 721.574 94.08 723.03 91.392C724.598 88.704 725.774 85.512 726.558 81.816C727.342 78.008 727.734 73.752 727.734 69.048V31.248H754.782V82.992V119.952H732.774L732.438 90.552H729.75C728.294 98.056 726.334 104.16 723.87 108.864C721.406 113.456 718.214 116.872 714.294 119.112C710.486 121.24 705.67 122.304 699.846 122.304ZM773.309 119.952V76.944V31.248H795.821L796.157 62.664H799.013C799.797 54.488 801.253 47.992 803.381 43.176C805.509 38.248 808.421 34.72 812.117 32.592C815.925 30.352 820.573 29.232 826.061 29.232C827.293 29.232 828.581 29.344 829.925 29.568C831.269 29.792 832.781 30.128 834.461 30.576L833.453 59.808C831.437 58.8 829.309 58.128 827.069 57.792C824.941 57.344 823.037 57.12 821.357 57.12C817.213 57.12 813.629 58.016 810.605 59.808C807.693 61.488 805.397 64.12 803.717 67.704C802.037 71.288 800.973 75.768 800.525 81.144V119.952H773.309ZM865.852 122.304C861.036 122.304 856.668 121.408 852.748 119.616C848.94 117.712 845.916 114.912 843.676 111.216C841.436 107.52 840.316 102.928 840.316 97.44C840.316 92.288 841.268 88.032 843.172 84.672C845.188 81.312 848.044 78.624 851.74 76.608C855.548 74.592 859.916 73.024 864.844 71.904C869.884 70.672 875.428 69.552 881.476 68.544C885.396 67.872 888.532 67.256 890.884 66.696C893.348 66.136 895.14 65.352 896.26 64.344C897.38 63.224 897.94 61.656 897.94 59.64C897.94 56.728 896.876 54.32 894.748 52.416C892.62 50.512 889.372 49.56 885.004 49.56C882.092 49.56 879.348 50.12 876.772 51.24C874.196 52.248 872.012 53.872 870.22 56.112C868.54 58.24 867.42 60.984 866.86 64.344L842.836 58.632C843.956 53.256 845.748 48.72 848.212 45.024C850.788 41.216 853.98 38.136 857.788 35.784C861.596 33.32 865.852 31.584 870.556 30.576C875.372 29.456 880.468 28.896 885.844 28.896C894.692 28.896 901.972 30.408 907.684 33.432C913.396 36.344 917.596 40.824 920.284 46.872C923.084 52.92 924.484 60.592 924.484 69.888V84.168C924.484 88.088 924.54 92.064 924.652 96.096C924.764 100.016 924.876 103.992 924.988 108.024C925.212 111.944 925.492 115.92 925.828 119.952H902.14C901.804 116.928 901.468 113.568 901.132 109.872C900.796 106.064 900.572 102.144 900.46 98.112H897.772C896.54 102.592 894.412 106.68 891.388 110.376C888.476 114.072 884.836 116.984 880.468 119.112C876.212 121.24 871.34 122.304 865.852 122.304ZM877.78 102.984C879.796 102.984 881.812 102.648 883.828 101.976C885.956 101.192 887.972 100.128 889.876 98.784C891.892 97.328 893.628 95.536 895.084 93.408C896.54 91.168 897.604 88.648 898.276 85.848L897.94 75.096L901.804 75.432C900.012 76.888 897.884 78.008 895.42 78.792C893.068 79.576 890.548 80.248 887.86 80.808C885.284 81.256 882.708 81.76 880.132 82.32C877.556 82.768 875.26 83.384 873.244 84.168C871.228 84.952 869.604 86.016 868.372 87.36C867.252 88.704 866.692 90.552 866.692 92.904C866.692 96.04 867.7 98.504 869.716 100.296C871.844 102.088 874.532 102.984 877.78 102.984Z" fill="url(#paint0_linear_139_327)"/>
<defs>
<linearGradient id="paint0_linear_139_327" x1="-5.99329" y1="64.952" x2="933.007" y2="64.952" gradientUnits="userSpaceOnUse">
<stop stop-color="#F2F2F2"/>
<stop offset="1" stop-color="#FFE2BE"/>
</linearGradient>
</defs>
</svg>
