<svg width="87" height="34" viewBox="0 0 87 34" fill="none" xmlns="http://www.w3.org/2000/svg">
<g clip-path="url(#clip0_38_2)">
<path d="M35.8372 23.3856C35.8372 19.6759 34.4833 16.2865 32.2415 13.6618H9.15669C6.91493 16.2813 5.56104 19.6759 5.56104 23.3856C5.56104 27.0901 6.91001 30.4795 9.14685 33.099H32.2513C34.4882 30.4795 35.8372 27.0901 35.8372 23.3856Z" fill="#FAA21B"/>
<path d="M1.00021 17.3876C0.967712 17.1334 0.974447 16.8803 1.02518 16.6337C1.08696 16.3409 1.12422 16.0474 1.16147 15.7539L1.3254 14.3891L2.07667 14.3752L2.41983 16.0497C2.45412 16.2367 2.50816 16.4192 2.55225 16.6066C2.59226 16.7629 2.61252 16.9237 2.61316 17.084C2.61559 17.177 2.60821 17.2699 2.60084 17.3627C2.5996 17.4091 2.58379 17.45 2.55354 17.4801C2.52315 17.5154 2.48841 17.5299 2.44414 17.5338L2.36554 17.5366C2.3983 17.2275 2.42053 16.5769 2.12036 15.6842C2.12852 15.7464 2.32644 16.9772 2.19866 17.5368L1.16759 17.5528C1.12345 17.5515 1.08463 17.5348 1.05617 17.4978C1.02771 17.4608 1.00387 17.4342 1.00021 17.3876Z" fill="#E39A25"/>
<path d="M1.75465 13.947C1.7154 13.9458 1.68624 13.9347 1.65749 13.9079C1.63365 13.8814 1.61975 13.85 1.61595 13.8085L1.53809 8.24984C1.53905 8.21368 1.55459 8.18314 1.57981 8.15803C1.60502 8.13296 1.63487 8.11831 1.66922 8.11934C1.70356 8.12034 1.73272 8.13155 1.7616 8.15306C1.78545 8.17963 1.80425 8.21119 1.80329 8.24736L1.88605 13.8062C1.88495 13.8475 1.87432 13.8782 1.84896 13.9085C1.81884 13.9334 1.78899 13.948 1.75465 13.947Z" fill="#E39A25"/>
<path d="M1.24911 14.1284C1.24613 14.0559 1.25773 13.9891 1.28404 13.9227C1.31034 13.8563 1.34618 13.8005 1.39169 13.7501C1.4372 13.6998 1.49224 13.6601 1.55191 13.6308C1.61158 13.6016 1.67574 13.588 1.74453 13.5849C1.81332 13.5817 1.87679 13.594 1.93985 13.6217C2.00292 13.6494 2.0559 13.6871 2.10369 13.735C2.15149 13.783 2.18921 13.841 2.21699 13.9038C2.24476 13.9666 2.25768 14.0342 2.26066 14.1067C2.26364 14.1791 2.25205 14.246 2.22574 14.3124C2.19944 14.3788 2.1636 14.4346 2.11809 14.4849C2.07258 14.5352 2.01754 14.575 1.95787 14.6042C1.8982 14.6334 1.83404 14.647 1.76525 14.6502C1.69646 14.6533 1.63299 14.6411 1.56993 14.6134C1.50687 14.5856 1.45389 14.5479 1.40608 14.5C1.35829 14.452 1.32056 14.3941 1.29279 14.3312C1.26502 14.2684 1.25209 14.2008 1.24911 14.1284Z" fill="#E39A25"/>
<path d="M2.13908 14.0617C2.13798 14.103 2.13688 14.1443 2.12597 14.1853C2.11997 14.2265 2.10429 14.2622 2.08848 14.3031C2.07281 14.3388 2.05223 14.3744 2.02689 14.4046C2.00154 14.4349 1.9762 14.4651 1.94119 14.49C1.90617 14.5147 1.8762 14.5346 1.84132 14.5542C1.80644 14.5738 1.76694 14.583 1.72743 14.5922C1.68793 14.6013 1.64856 14.6053 1.60946 14.599C1.57024 14.5978 1.53114 14.5915 1.49219 14.58C1.52106 14.6015 1.55497 14.6181 1.58903 14.6294C1.62308 14.6408 1.65713 14.6521 1.69636 14.6533C1.73055 14.6594 1.76978 14.6606 1.80425 14.6564C1.83871 14.6523 1.87331 14.643 1.90791 14.6337C1.94252 14.6244 1.97739 14.6047 2.00723 14.5901C2.0372 14.5703 2.06717 14.5505 2.09251 14.5203C2.11772 14.4952 2.14307 14.4649 2.16351 14.4345C2.18395 14.4041 2.20452 14.3685 2.21516 14.3379C2.23083 14.3021 2.2416 14.2663 2.24747 14.2303C2.25333 14.1943 2.25933 14.1531 2.25539 14.1168C2.25635 14.0807 2.24765 14.039 2.24371 14.0027C2.23486 13.9663 2.22111 13.9297 2.20723 13.8983C2.19347 13.8617 2.17468 13.8301 2.15085 13.8036C2.12716 13.7719 2.10333 13.7453 2.07445 13.7238C2.04558 13.7022 2.01671 13.6807 1.98293 13.6591C1.94901 13.6425 1.9151 13.626 1.88091 13.6199C1.95813 13.6687 2.01533 13.7324 2.06231 13.8113C2.11937 13.8802 2.14155 13.9687 2.13908 14.0617Z" fill="#FCB854"/>
<mask id="mask0_38_2" style="mask-type:luminance" maskUnits="userSpaceOnUse" x="0" y="0" width="41" height="14">
<path d="M40.7943 0.000488281L0 0.654426L0.187521 13.6319L40.9817 12.978L40.7943 0.000488281Z" fill="white"/>
</mask>
<g mask="url(#mask0_38_2)">
<path d="M20.2035 0.367842C20.3163 0.326508 20.4242 0.321341 20.5371 0.362675L40.5069 7.41007C40.5707 7.43076 40.6199 7.46692 40.6589 7.51343C40.6982 7.55993 40.7128 7.60639 40.7128 7.65807C40.7128 7.70974 40.6884 7.76142 40.649 7.80275C40.6101 7.84926 40.5561 7.88025 40.4924 7.90093L32.4915 10.5721L24.4908 13.2433C21.8615 13.0883 19.2322 13.1296 16.6079 13.3673L8.53847 10.9544L0.46907 8.5416C0.400395 8.52092 0.346435 8.48993 0.307192 8.4486C0.267949 8.40726 0.243422 8.35559 0.243422 8.30391C0.238516 8.25224 0.258138 8.2006 0.292476 8.1541C0.326813 8.10759 0.380773 8.07143 0.444544 8.05075L20.2035 0.367842Z" fill="#131313"/>
</g>
<mask id="mask1_38_2" style="mask-type:luminance" maskUnits="userSpaceOnUse" x="0" y="0" width="41" height="9">
<path d="M40.7946 0L0.000488281 0.653941L0.119033 8.85787L40.9131 8.20392L40.7946 0Z" fill="white"/>
</mask>
<g mask="url(#mask1_38_2)">
<path d="M39.9086 8.10242C39.9429 8.11277 40.5857 7.83891 40.6101 7.85443C40.6345 7.83891 40.6542 7.8234 40.6688 7.80275C40.6837 7.78207 40.6983 7.76142 40.7081 7.74073C40.718 7.72009 40.7278 7.6994 40.7278 7.67358C40.7325 7.6529 40.7278 7.62708 40.7231 7.60639C40.718 7.58575 40.7133 7.56506 40.6983 7.54441C40.6885 7.52373 40.6739 7.50308 40.6542 7.48757C40.6345 7.46692 40.6148 7.45141 40.5904 7.44106C40.566 7.42559 40.5412 7.41525 40.5121 7.4049L20.5372 0.362675C20.4243 0.321341 20.3164 0.326508 20.2036 0.367842L0.43974 8.05075C0.410309 8.06109 0.385781 8.07143 0.36616 8.08691C0.346538 8.10242 0.322011 8.1179 0.307295 8.13858C0.287673 8.15923 0.277862 8.17474 0.268052 8.19543C0.258241 8.21608 0.24843 8.23676 0.24843 8.26258C0.243525 8.28327 0.243525 8.30908 0.24843 8.32977C0.253336 8.35042 0.258241 8.3711 0.272957 8.39175C0.282768 8.41244 0.297484 8.43308 0.317106 8.4486C0.336727 8.46924 0.356349 8.48476 0.375971 8.4951C0.400499 8.47959 1.05782 8.73275 1.08726 8.72241L20.2134 0.781177C20.3262 0.739845 20.4342 0.734677 20.547 0.776014L39.9086 8.10242Z" fill="#212121"/>
</g>
<path d="M32.521 13.693C32.5259 13.7601 32.5161 13.8324 32.4916 13.8996C32.467 13.9668 32.4327 14.0288 32.3836 14.0908C32.3346 14.1476 32.2757 14.2045 32.207 14.2458C32.1384 14.2923 32.0648 14.3285 31.9814 14.3543C31.069 14.6178 30.1419 14.8554 29.2049 15.057C28.268 15.2636 27.3213 15.4341 26.3647 15.5788C25.4082 15.7235 24.4467 15.832 23.4803 15.9095C22.514 15.987 21.5427 16.0386 20.5714 16.0541C19.6002 16.0696 18.6289 16.0541 17.6625 16.0025C16.6913 15.956 15.7298 15.8733 14.7683 15.7648C13.8069 15.6511 12.8601 15.5116 11.9134 15.3359C10.9667 15.1603 10.0396 14.9536 9.11731 14.7211C9.03393 14.6953 8.95544 14.6643 8.88678 14.6178C8.81809 14.5765 8.75923 14.5248 8.70526 14.468C8.65621 14.4111 8.61696 14.3491 8.59244 14.282C8.56791 14.2148 8.55811 14.1476 8.55811 14.0753L8.48453 8.90341C8.47961 8.44871 8.97016 8.11288 9.46559 8.23171C11.7662 8.79489 14.1208 9.16692 16.5245 9.34772C19.1538 9.54408 21.7831 9.50275 24.4075 9.22372C26.8062 8.97056 29.1461 8.52625 31.432 7.8907C31.9275 7.75123 32.4278 8.07155 32.4327 8.53138L32.521 13.693Z" fill="#131313"/>
<path d="M26.7572 22.688L28.4839 25.9431H29.1952L27.1202 21.9802L26.7572 22.688Z" fill="white"/>
<path d="M26.6002 22.9877L26.9337 23.6697L25.7712 25.943H25.0697L26.6002 22.9877Z" fill="white"/>
<path d="M12.87 22.9413C12.6002 22.9413 12.3844 23.1738 12.3844 23.4528C12.3844 23.7318 12.6002 23.9643 12.87 23.9643H13.6794H13.6843C13.9836 23.9695 14.2534 24.0935 14.4496 24.295C14.5428 24.3932 14.6212 24.5068 14.6752 24.6257C14.7439 24.7807 14.788 24.9512 14.788 25.1372C14.788 25.7778 14.2828 26.31 13.6745 26.31H12.8651C12.6934 26.31 12.5267 26.2687 12.3795 26.1912C12.0509 26.0207 11.8105 25.69 11.7614 25.2922H12.3795H12.404C12.4678 25.4988 12.6493 25.6538 12.8651 25.6538H13.6745C13.9394 25.6538 14.1601 25.4214 14.1601 25.1423C14.1601 24.8633 13.9394 24.6308 13.6745 24.6308H13.6696H12.8602C12.6885 24.6308 12.5267 24.5895 12.3795 24.512C12.2765 24.4603 12.1784 24.388 12.095 24.3002C12.0018 24.2072 11.9233 24.0987 11.8644 23.9695C11.7958 23.8145 11.7516 23.644 11.7516 23.458C11.7516 22.993 12.0067 22.5952 12.3795 22.4091C12.5267 22.3316 12.6885 22.2903 12.8651 22.2903H13.6745C14.2386 22.2903 14.7047 22.7347 14.7782 23.3082H14.1405C14.0768 23.1015 13.8953 22.9465 13.6745 22.9465H12.87V22.9413Z" fill="white"/>
<path d="M27.13 19.6966C24.9176 19.6966 23.083 21.4481 22.8083 23.7008L17.5988 23.706C17.3241 21.4481 15.4944 19.7069 13.282 19.7069C10.8735 19.7069 8.92114 21.7684 8.92114 24.3053C8.92114 26.8421 10.8735 28.8985 13.2771 28.8985C15.4944 28.8985 17.3241 27.147 17.5988 24.8943L22.8083 24.8891C23.083 27.147 24.9127 28.8882 27.1251 28.8882C29.5336 28.8882 31.486 26.8267 31.486 24.2898C31.486 21.7426 29.5385 19.6914 27.13 19.6966ZM13.2771 27.4828C11.6093 27.4828 10.2554 26.0568 10.2554 24.295C10.2554 22.5383 11.6142 21.1071 13.282 21.1071C14.9498 21.1071 16.3037 22.5331 16.3037 24.295C16.2989 26.0517 14.9499 27.4777 13.2771 27.4828ZM27.13 27.4725C25.4621 27.4725 24.1083 26.0465 24.1083 24.2846C24.1083 22.5279 25.467 21.0968 27.1349 21.0968C28.8027 21.0968 30.1566 22.5228 30.1566 24.2846C30.1517 26.0413 28.8027 27.4725 27.13 27.4725Z" fill="white"/>
<path d="M75.7679 12.1542L77.1639 14.7906H77.7347L76.0608 11.5847L75.7679 12.1542Z" fill="black"/>
<path d="M75.6443 12.3984L75.9144 12.9517L74.9735 14.7906H74.4027L75.6443 12.3984Z" fill="black"/>
<path d="M41.3873 10.5181C40.809 10.5181 40.3539 11.0144 40.3539 11.6084C40.3539 12.2106 40.8168 12.6988 41.3873 12.6988H43.1151H43.1304C43.763 12.7069 44.3413 12.9754 44.7657 13.4067C44.9582 13.6102 45.1279 13.8543 45.2515 14.1146C45.3979 14.4483 45.4983 14.8144 45.4983 15.2131C45.4983 16.5802 44.4185 17.7193 43.1151 17.7193H41.3873C41.0172 17.7193 40.6625 17.6298 40.3539 17.4589C39.652 17.0928 39.1431 16.3767 39.0351 15.5305H40.3539H40.4003C40.5389 15.9699 40.9247 16.3035 41.3873 16.3035H43.1151C43.6859 16.3035 44.1563 15.8071 44.1563 15.2131C44.1563 14.611 43.6859 14.1228 43.1229 14.1146H43.1151H41.3798C41.0172 14.1146 40.6625 14.0251 40.3539 13.8543C40.1303 13.7403 39.922 13.5857 39.7445 13.4067C39.5441 13.2033 39.3744 12.9673 39.2511 12.6988C39.1045 12.3733 39.012 11.999 39.012 11.6084C39.012 10.6157 39.5595 9.76947 40.3539 9.3626C40.6625 9.19988 41.0172 9.10223 41.3873 9.10223H43.1151C44.3181 9.10223 45.3208 10.0624 45.4676 11.2911H44.1024C43.9634 10.8517 43.578 10.5181 43.1072 10.5181H41.3873Z" fill="#F29800"/>
<path d="M65.2811 12.3732C65.0649 12.3732 64.8953 12.5604 64.8953 12.7801C64.8953 12.9997 65.0649 13.1869 65.2811 13.1869H65.9212H65.9286C66.168 13.1869 66.3762 13.2927 66.538 13.4473C66.6073 13.5205 66.677 13.6182 66.7231 13.7077C66.777 13.8297 66.8156 13.9681 66.8156 14.1145C66.8156 14.6271 66.4148 15.0503 65.9286 15.0503H65.2885C65.15 15.0503 65.0185 15.0177 64.9031 14.9526C64.6406 14.8143 64.4555 14.5539 64.4095 14.2366H64.9031H64.9185C64.9724 14.3993 65.1114 14.5214 65.2885 14.5214H65.9286C66.1369 14.5214 66.3144 14.3342 66.3144 14.1145C66.3144 13.8948 66.1369 13.7077 65.9286 13.7077H65.2811C65.1421 13.7077 65.011 13.6751 64.8953 13.61C64.8106 13.5693 64.7335 13.5124 64.6717 13.4391C64.5945 13.3659 64.5327 13.2764 64.4866 13.1788C64.4327 13.0567 64.4016 12.9184 64.4016 12.7719C64.4016 12.4057 64.6024 12.0884 64.9031 11.9338C65.0185 11.8768 65.15 11.8362 65.2885 11.8362H65.9286C66.3762 11.8362 66.7463 12.1942 66.8081 12.6498H66.2991C66.2451 12.4871 66.1062 12.3651 65.9286 12.3651H65.2811V12.3732Z" fill="black"/>
<path d="M50.2104 16.3116C51.1591 16.3116 52 15.7989 52.4937 15.0178L53.6042 15.807C52.8637 16.9625 51.6221 17.7274 50.2104 17.7274H49.9097C48.8609 17.7274 47.889 17.2961 47.1717 16.5964C46.3545 15.8071 45.8297 14.676 45.8297 13.4148C45.8297 12.1617 46.3545 11.0225 47.1717 10.2332C47.8968 9.54157 48.8609 9.11029 49.9097 9.11029H50.2104C51.6221 9.11029 52.8637 9.87517 53.6042 11.0307L52.4937 11.8118C52 11.0388 51.1591 10.5261 50.2104 10.5261H49.9097C48.398 10.5261 47.1717 11.828 47.1717 13.4148C47.1717 15.0015 48.4059 16.3116 49.9097 16.3116H50.2104Z" fill="#F29800"/>
<path d="M55.2777 14.1227V17.7274H53.9436V14.1227V12.7069V9.11029H55.2777V12.7069H59.1187V9.11029H60.4607V12.7069V14.1227V17.7274H59.1187V14.1227H55.2777Z" fill="#F29800"/>
<path d="M81.3604 17.7274V16.3116V9.11029H82.7024V16.3197H86.9673V17.7274H82.7024H81.3604Z" fill="#F29800"/>
<path d="M80.1604 15.1154C80.1451 15.1154 80.1372 15.1154 80.1219 15.1154C80.0447 15.1154 79.9675 15.123 79.8904 15.1154H80.1604Z" fill="white"/>
<path d="M43.726 23.5781L48.5665 32.7359H50.5592L44.7369 21.5784L43.726 23.5781Z" fill="black"/>
<path d="M43.2788 24.4291L44.2122 26.3468L40.946 32.7357H38.9729L43.2788 24.4291Z" fill="black"/>
<path d="M80.1667 23.5781L85.0073 32.7359H87L81.1678 21.5887L80.1667 23.5781Z" fill="black"/>
<path d="M79.7294 24.4293L80.6624 26.347L77.3965 32.7359H75.4235L79.7294 24.4293Z" fill="black"/>
<path d="M59.2879 21.5477C59.356 21.5477 59.4143 21.6092 59.4143 21.681V27.875C59.4143 29.6389 58.0632 31.0746 56.3815 31.0746C54.7096 31.0746 53.3491 29.6492 53.3491 27.875V21.5477H51.7256V27.875C51.7256 30.5824 53.8057 32.7769 56.372 32.7769C58.9379 32.7769 61.0181 30.5824 61.0181 27.875V21.5477H59.2879Z" fill="black"/>
<path d="M70.126 26.8083C71.2633 26.0289 72.0797 24.788 72.3517 23.3421C72.41 23.0037 72.449 22.6652 72.449 22.3063C72.449 22.2345 72.449 22.1628 72.4391 22.091V22.0704V21.6295H63.662V32.6844H65.2855V27.6902H67.414C67.8321 27.68 68.2403 27.6287 68.6289 27.5159L71.6034 32.6844L73.5083 32.7049L70.126 26.8083ZM67.3849 25.9674C67.3652 25.9674 67.3557 25.9674 67.3361 25.9674C67.2388 25.9674 67.142 25.9776 67.0448 25.9674H65.2855V23.3318H70.6704C70.2523 24.8393 68.9399 25.9469 67.3849 25.9674Z" fill="black"/>
<path d="M87 19.3834V18.5717L39.0118 18.5717V19.3834L87 19.3834Z" fill="black"/>
<path d="M87 20.7361V19.9244L39.0118 19.9244V20.7361L87 20.7361Z" fill="#F29800"/>
<mask id="mask2_38_2" style="mask-type:luminance" maskUnits="userSpaceOnUse" x="61" y="9" width="20" height="9">
<path d="M80.3077 9.10223H61.4117V17.7907H80.3077V9.10223Z" fill="white"/>
</mask>
<g mask="url(#mask2_38_2)">
<path d="M76.2541 9.10223H75.9569C73.9531 9.10223 72.2769 10.6782 71.9569 12.736H69.7472C69.435 10.6782 67.7663 9.10223 65.7547 9.10223H65.4574C63.2328 9.10223 61.4117 11.0539 61.4117 13.4465C61.4117 15.8391 63.2328 17.7989 65.4653 17.7989H65.7547C67.7588 17.7989 69.435 16.2147 69.7472 14.1651H71.9569C72.2769 16.2229 73.9456 17.7989 75.9494 17.7989H76.2466C78.4791 17.7989 80.3002 15.8391 80.3002 13.4465C80.3077 11.0539 78.4866 9.10223 76.2541 9.10223ZM65.7547 16.3699H65.4574C63.9568 16.3699 62.7297 15.0552 62.7297 13.4465C62.7297 11.8378 63.9568 10.5312 65.4574 10.5312H65.7547C67.2557 10.5312 68.4749 11.8378 68.4749 13.4465C68.4749 15.047 67.2557 16.3699 65.7547 16.3699ZM76.2541 16.3699H75.9569C74.4558 16.3699 73.2292 15.0552 73.2292 13.4465C73.2292 11.8378 74.4558 10.5312 75.9569 10.5312H76.2541C77.7551 10.5312 78.9743 11.8378 78.9743 13.4465C78.9743 15.047 77.7551 16.3699 76.2541 16.3699Z" fill="#F29800"/>
</g>
</g>
<defs>
<clipPath id="clip0_38_2">
<rect width="87" height="33.099" fill="white"/>
</clipPath>
</defs>
</svg>
